<svg xmlns="http://www.w3.org/2000/svg" viewBox="0 0 64 64" fill="none" stroke="#f4f6ff" stroke-width="2" stroke-linecap="round" stroke-linejoin="round">
  <path d="M24 10c-6.6 0-12 5.4-12 12 0 2.4.7 4.6 1.8 6.5-2.3 1.9-3.8 4.8-3.8 8 0 5.7 4.6 10.3 10.3 10.3h1.2"/>
  <path d="M24 10c0-3.3 2.7-6 6-6s6 2.7 6 6"/>
  <path d="M40 10c6.6 0 12 5.4 12 12 0 2.4-.7 4.6-1.8 6.5 2.3 1.9 3.8 4.8 3.8 8 0 5.7-4.6 10.3-10.3 10.3h-1.2"/>
  <path d="M22 20c2.2-3.5 6-5.7 10.3-5.7S40.4 16.5 42.6 20"/>
  <path d="M20 28c2.2 2.8 5.6 4.6 9.4 4.6S36.6 30.8 38.8 28"/>
  <path d="M22 38c2.4 2.3 5.6 3.7 9.1 3.7S38 40.3 40.4 38"/>
  <path d="M32 46v12"/>
</svg>
